<svg height="6" viewBox="0 0 1055 6" width="1055" xmlns="http://www.w3.org/2000/svg"><g style="stroke:#000;stroke-width:1.045296;fill:none;fill-rule:evenodd;stroke-dasharray:3.135889;stroke-linecap:round;stroke-linejoin:round" transform="translate(1.5 .909408)"><path d="m0 0 7.58361812 4.18118467 7.41638188-4.18118467 7.5836181 4.18118467 7.4163819-4.18118467 7.5836181 4.18118467 7.4163819-4.18118467 7.5836181 4.18118467 7.4163819-4.18118467"/><path d="m62 0 7.5836181 4.18118467 7.4163819-4.18118467 7.5836181 4.18118467 7.4163819-4.18118467 7.5836181 4.18118467 7.4163819-4.18118467 7.583618 4.18118467 7.416382-4.18118467"/><path d="m124 0 7.583618 4.18118467 7.416382-4.18118467 7.583618 4.18118467 7.416382-4.18118467 7.583618 4.18118467 7.416382-4.18118467 7.583618 4.18118467 7.416382-4.18118467"/><path d="m186 0 7.583618 4.18118467 7.416382-4.18118467 7.583618 4.18118467 7.416382-4.18118467 7.583618 4.18118467 7.416382-4.18118467 7.583618 4.18118467 7.416382-4.18118467"/><path d="m248 0 7.583618 4.18118467 7.416382-4.18118467 7.583618 4.18118467 7.416382-4.18118467 7.583618 4.18118467 7.416382-4.18118467 7.583618 4.18118467 7.416382-4.18118467"/><path d="m310 0 7.583618 4.18118467 7.416382-4.18118467 7.583618 4.18118467 7.416382-4.18118467 7.583618 4.18118467 7.416382-4.18118467 7.583618 4.18118467 7.416382-4.18118467"/><path d="m372 0 7.583618 4.18118467 7.416382-4.18118467 7.583618 4.18118467 7.416382-4.18118467 7.583618 4.18118467 7.416382-4.18118467 7.583618 4.18118467 7.416382-4.18118467"/><path d="m434 0 7.583618 4.18118467 7.416382-4.18118467 7.583618 4.18118467 7.416382-4.18118467 7.583618 4.18118467 7.416382-4.18118467 7.583618 4.18118467 7.416382-4.18118467"/><path d="m496 0 7.583618 4.18118467 7.416382-4.18118467 7.583618 4.18118467 7.416382-4.18118467 7.583618 4.18118467 7.416382-4.18118467 7.583618 4.18118467 7.416382-4.18118467"/><path d="m558 0 7.583618 4.18118467 7.416382-4.18118467 7.583618 4.18118467 7.416382-4.18118467 7.583618 4.18118467 7.416382-4.18118467 7.583618 4.18118467 7.416382-4.18118467"/><path d="m620 0 7.583618 4.18118467 7.416382-4.18118467 7.583618 4.18118467 7.416382-4.18118467 7.583618 4.18118467 7.416382-4.18118467 7.583618 4.18118467 7.416382-4.18118467"/><path d="m682 0 7.583618 4.18118467 7.416382-4.18118467 7.583618 4.18118467 7.416382-4.18118467 7.583618 4.18118467 7.416382-4.18118467 7.583618 4.18118467 7.416382-4.18118467"/><path d="m744 0 7.583618 4.18118467 7.416382-4.18118467 7.583618 4.18118467 7.416382-4.18118467 7.583618 4.18118467 7.416382-4.18118467 7.583618 4.18118467 7.416382-4.18118467"/><path d="m806 0 7.583618 4.18118467 7.416382-4.18118467 7.583618 4.18118467 7.416382-4.18118467 7.583618 4.18118467 7.416382-4.18118467 7.583618 4.18118467 7.416382-4.18118467"/><path d="m868 0 7.583618 4.18118467 7.416382-4.18118467 7.583618 4.18118467 7.416382-4.18118467 7.583618 4.18118467 7.416382-4.18118467 7.583618 4.18118467 7.416382-4.18118467"/><path d="m930 0 7.583618 4.18118467 7.416382-4.18118467 7.583618 4.18118467 7.416382-4.18118467 7.583618 4.18118467 7.416382-4.18118467 7.583618 4.18118467 7.416382-4.18118467"/><path d="m992 0 7.583618 4.18118467 7.416382-4.18118467 7.58362 4.18118467 7.41638-4.18118467 7.58362 4.18118467 7.41638-4.18118467 7.58362 4.18118467 7.41638-4.18118467"/></g></svg>